# xmcd
#
# Track frame offsets:
#	150
#	13904
#	26006
#	45771
#	63551
#	75092
#	89970
#	123569
#	139335
#	149729
#	159376
#
# Disc length: 2337 seconds
#
# Revision: 0
# Processed by: cddbd v1.5.2PL0 Copyright (c) Steve Scherf et al.
# Submitted via: EasyCDDAExtractor 12.0.1.1
#
DISCID=97091f0b
DTITLE=Wolfman Jack - The New Sound of Wolfman Jack
DYEAR=2009
DGENRE=Blues
TTITLE0=Wanderin' Around
TTITLE1=Dust My Broom
TTITLE2=Checkin' Up on My Baby
TTITLE3=Everyday (I've Got the Blues)
TTITLE4=Shake Your Moneymaker
TTITLE5=Rollin' and Tumblin'
TTITLE6=Goodbye, Baby
TTITLE7=Six Days on the Road
TTITLE8=Lazy Poker Blues
TTITLE9=I Need Your Love Tonight
TTITLE10=Worried 'bout My Baby
EXTD=
EXTT0=
EXTT1=
EXTT2=
EXTT3=
EXTT4=
EXTT5=
EXTT6=
EXTT7=
EXTT8=
EXTT9=
EXTT10=
PLAYORDER=
